<?xml version="1.0" encoding="utf-8"?>
<!-- Generator: Adobe Illustrator 26.0.3, SVG Export Plug-In . SVG Version: 6.00 Build 0)  -->
<svg version="1.1" xmlns="http://www.w3.org/2000/svg" xmlns:xlink="http://www.w3.org/1999/xlink" x="0px" y="0px"
	 viewBox="0 0 126 126" style="enable-background:new 0 0 126 126;" xml:space="preserve">
<style type="text/css">
	.st0{fill:#FFFFFF;}
	.st1{fill:none;}
	.st2{fill:#1D1D1B;}
	.st3{fill:#0056FF;}
</style>
<g id="Layer_1">
	<g>
		<rect x="13.8" y="69.2" width="9.8" height="3.9"/>
	</g>
	<g>
		<path d="M37.4,81H33c-1.8,0-3.4-1.2-3.8-3L27,69.2h24.2v3.9H32.1l1,3.9l4.4,0V81z"/>
	</g>
	<path d="M11.1,64.9l10.3-22.1c0.3-0.7,1-1.1,1.8-1.1h28v-3.9h-28c-2.3,0-4.4,1.3-5.4,3.4l-8,17.2v-2.9H0v3.9h9.4l-1.8,3.9
		c-1.1,2.3-1.6,4.9-1.6,7.5v32h13.3l2.8-9.8h15.4v-3.9H19l-2.8,9.8H9.8v-28C9.8,68.7,10.3,66.7,11.1,64.9z"/>
	<g>
		<path d="M86.6,55.4h-3.9v-3.9h3.9V55.4z M94.4,43.7c-5.4-5.4-14.1-5.4-19.5,0l-2.8-2.8c6.9-6.9,18.1-6.9,25.1,0L94.4,43.7z
			 M62.4,31.1l-2.8-2.8C66.3,21.7,75.2,18,84.7,18s18.4,3.7,25.1,10.4l-2.8,2.8c-6-6-13.9-9.2-22.3-9.2S68.3,25.2,62.4,31.1z
			 M119.5,18.6C110.2,9.3,97.8,4.2,84.7,4.2S59.1,9.3,49.9,18.6l-2.8-2.8c10-10,23.4-15.6,37.6-15.6s27.5,5.5,37.6,15.6L119.5,18.6z
			"/>
	</g>
	<path class="st1" d="M104.6,66.4c-0.3-0.7-1-1.1-1.8-1.1H66.5c-0.8,0-1.5,0.4-1.8,1.1L57.5,82h54.4L104.6,66.4z"/>
	<path class="st1" d="M104.6,66.4c-0.3-0.7-1-1.1-1.8-1.1H66.5c-0.8,0-1.5,0.4-1.8,1.1L57.5,82h54.4L104.6,66.4z"/>
	<path class="st1" d="M104.6,66.4c-0.3-0.7-1-1.1-1.8-1.1H66.5c-0.8,0-1.5,0.4-1.8,1.1L57.5,82h54.4L104.6,66.4z"/>
	<path class="st2" d="M126,79h-9.8v2.9l-8-17.2c-1-2.1-3.1-3.4-5.4-3.4H66.5c-2.3,0-4.4,1.3-5.4,3.4l-8,17.2V79h-9.8v3.9h9.4
		l-1.8,3.9c-1.1,2.3-1.6,4.9-1.6,7.5v32h13.3l2.8-9.8H104l2.8,9.8h13.3v-32c0-2.6-0.6-5.1-1.6-7.5l-1.8-3.9h9.4V79z M116.2,122.3
		h-6.4l-2.8-9.8H62.4l-2.8,9.8h-6.4v-28c0-2,0.4-4,1.3-5.8l1.2-2.6h58l1.2,2.6v0c0.8,1.8,1.3,3.8,1.3,5.8V122.3z M64.7,66.4
		c0.3-0.7,1-1.1,1.8-1.1h36.3c0.8,0,1.5,0.4,1.8,1.1l7.2,15.6H57.5L64.7,66.4z"/>
	<polygon points="57.1,94.5 57.1,94.5 57.1,98.4 66.9,98.4 66.9,98 66.9,98 66.9,94 57.1,94 	"/>
	<polygon points="102.4,94.5 102.4,94.5 102.4,98.4 112.2,98.4 112.2,98 112.2,98 112.2,94 102.4,94 	"/>
	<path d="M72.5,102.9c0.4,1.8,2,3,3.8,3H93c1.8,0,3.4-1.2,3.8-3L99,94H70.3L72.5,102.9z M93.9,98l-1,3.9l-16.6,0l-1-3.9H93.9z"/>
	<path class="st0" d="M114.9,88.5l-1.2-2.6h-58l-1.2,2.6c-0.8,1.8-1.3,3.8-1.3,5.8v28h6.4l2.8-9.8H107l2.8,9.8h6.4v-28
		C116.2,92.3,115.7,90.3,114.9,88.5L114.9,88.5z M66.9,98L66.9,98l0,0.4h-9.8v-3.9h0V94h9.8V98z M96.8,102.9c-0.4,1.8-2,3-3.8,3
		H76.3c-1.8,0-3.4-1.2-3.8-3L70.3,94H99L96.8,102.9z M112.2,98L112.2,98l0,0.4h-9.8v-3.9h0V94h9.8V98z"/>
</g>
<g id="Layer_2">
</g>
</svg>
