<?xml version="1.0" encoding="utf-8"?>
<!-- Generator: Adobe Illustrator 26.0.3, SVG Export Plug-In . SVG Version: 6.00 Build 0)  -->
<svg version="1.1" xmlns="http://www.w3.org/2000/svg" xmlns:xlink="http://www.w3.org/1999/xlink" x="0px" y="0px"
	 viewBox="0 0 126 126" style="enable-background:new 0 0 126 126;" xml:space="preserve">
<style type="text/css">
	.st0{fill:#FFFFFF;}
	.st1{fill:none;}
	.st2{fill:#1D1D1B;}
	.st3{fill:#0056FF;}
</style>
<g id="Layer_1">
	<g>
		<polygon class="st1" points="17.8,97.5 108.9,97.5 63.3,18.7 		"/>
		<path class="st0" d="M121.7,99.9L67.6,6.4c-0.9-1.5-2.5-2.5-4.2-2.5c-1.7,0-3.3,0.9-4.2,2.5L5,99.9c-0.5,0.8-0.7,1.6-0.7,2.5
			c0,2.7,2.2,4.9,4.9,4.9h108.3c2.7,0,4.9-2.2,4.9-4.9C122.4,101.5,122.2,100.7,121.7,99.9L121.7,99.9z M59,11.3
			C59,11.3,59,11.3,59,11.3C59,11.3,59,11.3,59,11.3z M17.8,97.5l45.6-78.7l45.6,78.7H17.8z M113.2,104.9
			C113.2,104.9,113.2,104.9,113.2,104.9C113.2,104.9,113.2,104.9,113.2,104.9z"/>
		<path d="M125.1,97.9L71,4.4C69.4,1.7,66.4,0,63.3,0s-6,1.7-7.6,4.4L1.6,97.9c-0.8,1.4-1.2,2.9-1.2,4.4c0,4.9,4,8.9,8.9,8.9h48.2
			V126h3.9v-14.8h3.9V126h3.9v-14.8h48.2c4.9,0,8.9-4,8.9-8.9C126.3,100.8,125.9,99.3,125.1,97.9z M117.5,107.3H9.2
			c-2.7,0-4.9-2.2-4.9-4.9c0-0.8,0.2-1.7,0.7-2.5L59.1,6.4c0.9-1.5,2.5-2.5,4.2-2.5c1.7,0,3.3,0.9,4.2,2.5l54.1,93.5l0,0
			c0.5,0.8,0.7,1.6,0.7,2.4C122.4,105.1,120.2,107.3,117.5,107.3z"/>
		<g>
			<path d="M68.3,58.1c3.8,0,6.9-3.1,6.9-6.9s-3.1-6.9-6.9-6.9s-6.9,3.1-6.9,6.9S64.5,58.1,68.3,58.1z M68.3,48.2c1.6,0,3,1.3,3,3
				s-1.3,3-3,3s-3-1.3-3-3S66.6,48.2,68.3,48.2z"/>
			<path d="M97.3,92.5L84.2,69.9h-5.1l-4.9,6.7l-6.9-3.4V60h-3.9v11.1l-14-7l4.2-7.1h5.8v-3.9h-8l-5.5,9.2l-2.3-1.2l-1.8,3.5
				l9.2,4.6L40,88.6l3.4,2l11.1-19.4l17.3,8.7l-9.4,12.8H97.3z M81.1,73.8h0.8l8.5,14.8H70.2L81.1,73.8z"/>
			<rect x="55.5" y="76.8" width="3.9" height="13.8"/>
		</g>
	</g>
</g>
<g id="Layer_2">
</g>
</svg>
