<?xml version="1.0" encoding="utf-8"?>
<!-- Generator: Adobe Illustrator 26.0.3, SVG Export Plug-In . SVG Version: 6.00 Build 0)  -->
<svg version="1.1" xmlns="http://www.w3.org/2000/svg" xmlns:xlink="http://www.w3.org/1999/xlink" x="0px" y="0px"
	 viewBox="0 0 126 126" style="enable-background:new 0 0 126 126;" xml:space="preserve">
<style type="text/css">
	.st0{fill:#FFFFFF;}
	.st1{fill:none;}
	.st2{fill:#1D1D1B;}
	.st3{fill:#0056FF;}
</style>
<g id="Layer_1">
	<g>
		<g>
			<polygon class="st0" points="38.4,94.5 38.4,116.2 91.5,116.2 91.5,94.5 89.7,90.6 40.3,90.6 			"/>
		</g>
		<g>
			<rect x="56.1" y="105.6" width="17.7" height="3.9"/>
			<path d="M84.8,75.8c-1.1-2.4-3.6-3.9-6.2-3.9H51.3c-2.6,0-5.1,1.5-6.2,3.9L39,88.6h-7.5v3.9h5.6l-0.7,1.5V126h3.9v-7.9h49.2v7.9
				h3.9V94.1l-0.7-1.5h5.6v-3.9h-7.5L84.8,75.8z M48.7,77.5c0.5-1,1.5-1.7,2.7-1.7h27.3c1.1,0,2.2,0.7,2.7,1.7l5.3,11.1H43.4
				L48.7,77.5z M89.6,94.9v3.5h-9.8v3.9h9.8v11.8H40.4v-11.8h9.8v-3.9h-9.8v-3.5l1.1-2.4h46.9L89.6,94.9z"/>
			<rect x="80.4" y="61.3" width="16.4" height="3.9"/>
			<rect x="78.5" y="53.4" width="20.2" height="3.9"/>
			<rect x="75.4" y="45.5" width="26.5" height="3.9"/>
			<path d="M58.1,47.5H62v-11c1,0.6,2.2,0.9,3.5,0.9h46.2c1.3,0,2.4-0.4,3.5-0.9v16.7h-7.3l3.2-9.2l-3.7-1.3L99.6,65h15.6v15.8h-7.2
				l-2-9.8H90.6v3.9h12.2l2,9.8h14.4V0h-61V47.5z M105.1,61l1.4-3.9h8.6V61H105.1z M111.7,33.5H65.5c-1.9,0-3.5-1.6-3.5-3.7v-14
				h53.2v14C115.2,31.8,113.6,33.5,111.7,33.5z M115.2,3.9v7.9H62V3.9H115.2z"/>
			<rect x="122.1" y="15.8" width="3.9" height="15.8"/>
			<rect x="51.2" y="15.8" width="3.9" height="15.8"/>
			<path d="M8.9,72.8h9.8v-3.9H8.9v-3.5l8.3-17.5c0.5-1,1.5-1.7,2.7-1.7h27.3c1.1,0,2.2,0.7,2.7,1.7l8.1,17h19.7l-7.8-22.3L66.1,44
				L72,61H60.4l-7-14.8c-1.1-2.4-3.6-3.9-6.2-3.9H19.8c-2.6,0-5.1,1.5-6.2,3.9L7.5,59.1H0V63h5.6l-0.7,1.5v31.9h3.9v-7.9h16.7v-3.9
				H8.9V72.8z"/>
		</g>
	</g>
</g>
<g id="Layer_2">
</g>
</svg>
