<?xml version="1.0" encoding="utf-8"?>
<!-- Generator: Adobe Illustrator 26.0.3, SVG Export Plug-In . SVG Version: 6.00 Build 0)  -->
<svg version="1.1" xmlns="http://www.w3.org/2000/svg" xmlns:xlink="http://www.w3.org/1999/xlink" x="0px" y="0px"
	 viewBox="0 0 126 126" style="enable-background:new 0 0 126 126;" xml:space="preserve">
<style type="text/css">
	.st0{fill:#FFFFFF;}
	.st1{fill:none;}
	.st2{fill:#1D1D1B;}
	.st3{fill:#0056FF;}
</style>
<g id="Layer_1">
	<g>
		<g>
			<polygon points="43.3,96.5 67.4,126.1 72.5,126.1 47.2,95.1 47.2,84.8 126,84.8 126,80.8 43.3,80.8 			"/>
		</g>
		<g>
			<polygon points="47.1,126.1 52.2,126.1 34.6,104.5 0,104.5 0,108.4 32.7,108.4 			"/>
		</g>
	</g>
	<g>
		<polygon points="88.6,69 43.3,69 43.3,0.1 47.3,0.1 47.3,65.1 88.6,65.1 		"/>
	</g>
	<g>
		<rect x="110.3" y="65.1" width="15.7" height="3.9"/>
	</g>
	<g>
		<polygon points="31.5,92.6 0,92.6 0,88.7 27.6,88.7 27.6,0.1 31.5,0.1 		"/>
	</g>
	<path class="st0" d="M121.7,22.7c-1-6-4.4-11.1-9.3-14.6c-3.8-2.7-8.3-4.1-13-4.1c0,0,0,0,0,0c-4.7,0-9.2,1.4-13,4.1
		c-10.2,7.2-12.7,21.3-5.6,31.5l18.5,26.5L118,39.7C121.4,34.7,122.8,28.7,121.7,22.7z"/>
	<path d="M125.6,22.1c-1.2-7-5.1-13.1-10.9-17.2c-4.5-3.1-9.7-4.8-15.2-4.8c0,0,0,0,0,0c-5.5,0-10.7,1.7-15.2,4.8
		c-12,8.4-14.9,25-6.5,37L99.4,73l21.8-31.1C125.3,36.1,126.8,29.1,125.6,22.1z M99.4,66.2L80.9,39.7c-7.2-10.2-4.7-24.4,5.6-31.5
		c3.8-2.7,8.3-4.1,13-4.1c0,0,0,0,0,0c4.7,0,9.1,1.4,13,4.1c5,3.5,8.3,8.7,9.3,14.6c1,6-0.3,12-3.8,16.9L99.4,66.2z"/>
	<g>
		<path d="M97.1,29.3v9H93V15.1h9.3c2.7,0,4.8,0.6,6.2,1.9c1.5,1.2,2.2,3,2.2,5.3s-0.7,4-2.2,5.3c-1.5,1.2-3.5,1.9-6.2,1.9
			C102.3,29.3,97.1,29.3,97.1,29.3z M97.1,25.8h4.9c1.5,0,2.6-0.3,3.4-0.9c0.8-0.6,1.2-1.5,1.2-2.6c0-1.2-0.4-2.1-1.2-2.7
			c-0.8-0.6-1.9-0.9-3.4-0.9h-4.9L97.1,25.8L97.1,25.8z"/>
	</g>
</g>
<g id="Layer_2">
</g>
</svg>
