<?xml version="1.0" encoding="utf-8"?>
<!-- Generator: Adobe Illustrator 26.0.3, SVG Export Plug-In . SVG Version: 6.00 Build 0)  -->
<svg version="1.1" xmlns="http://www.w3.org/2000/svg" xmlns:xlink="http://www.w3.org/1999/xlink" x="0px" y="0px"
	 viewBox="0 0 126 126" style="enable-background:new 0 0 126 126;" xml:space="preserve">
<style type="text/css">
	.st0{fill:#FFFFFF;}
	.st1{fill:none;}
	.st2{fill:#1D1D1B;}
	.st3{fill:#0056FF;}
</style>
<g id="Layer_1">
	<path class="st1" d="M116.1,99.1v14.1c0,1.6,1.3,3,3,3c1,0,1.9-0.5,2.5-1.3c0.6-0.8,0.7-1.8,0.3-2.8L116.1,99.1z"/>
	<path class="st1" d="M104.3,66.9c0-1.1-0.9-2-2-2H80.6c-1.1,0-2,0.9-2,2v13.8h25.6V66.9z"/>
	<rect x="3.9" y="17.7" class="st1" width="118.1" height="3.9"/>
	<path class="st1" d="M47.2,66.9c0-1.1-0.9-2-2-2H23.5c-1.1,0-2,0.9-2,2v13.8h25.6V66.9z"/>
	<path class="st1" d="M59,99.1v14.1c0,1.6,1.3,3,3,3c1,0,1.9-0.5,2.5-1.3c0.6-0.8,0.7-1.8,0.3-2.8L59,99.1z"/>
	<path class="st0" d="M104.3,84.7H78.7v35.4h25.6V84.7z M92,111.2h-4.3l3.3-7.9h-4.9l4.9-11.8h4.3l-3.3,7.9h4.9L92,111.2z"/>
	<g>
		<path class="st1" d="M116.1,99.1v14.1c0,1.6,1.3,3,3,3c1,0,1.9-0.5,2.5-1.3c0.6-0.8,0.7-1.8,0.3-2.8L116.1,99.1z"/>
		<rect x="78.7" y="84.7" class="st1" width="25.6" height="35.4"/>
		<path class="st1" d="M104.3,66.9c0-1.1-0.9-2-2-2H80.6c-1.1,0-2,0.9-2,2v13.8h25.6V66.9z"/>
		<path d="M125.4,110.5l-9.8-22.4h0c-0.9-2-3-3.4-5.4-3.4h-2V66.9c0-3.3-2.6-5.9-5.9-5.9H80.6c-3.3,0-5.9,2.6-5.9,5.9V124h33.5V88.6
			h2c0.8,0,1.5,0.5,1.8,1.2l0,0c0.1,0.2,0.2,0.5,0.2,0.8v22.6c0,3.8,3.1,6.9,6.9,6.9c2.3,0,4.5-1.1,5.7-3.1
			C126,115.1,126.3,112.7,125.4,110.5z M78.7,66.9c0-1.1,0.9-2,2-2h21.7c1.1,0,2,0.9,2,2v13.8H78.7V66.9z M104.3,120.1H78.7V84.7
			h25.6V120.1z M121.5,114.8c-0.6,0.8-1.5,1.3-2.5,1.3c-1.6,0-3-1.3-3-3V99.1l5.7,12.9C122.1,113,122,114,121.5,114.8z"/>
	</g>
	<rect x="3.9" y="5.9" class="st0" width="118.1" height="7.9"/>
	<path d="M-0.1,2v23.6h27.6v29.5h3.9V25.6h5.9v29.5h3.9V25.6h43.3v29.5h3.9V25.6h5.9v29.5h3.9V25.6h27.6V2H-0.1z M122,13.8H3.9V5.9
		H122V13.8z M122,21.7H3.9v-3.9H122V21.7z"/>
	<polygon points="95.2,91.5 90.9,91.5 86.1,103.4 91,103.4 87.7,111.2 92,111.2 96.9,99.4 91.9,99.4 	"/>
	<g>
		<path class="st1" d="M59,99.1v14.1c0,1.6,1.3,3,3,3c1,0,1.9-0.5,2.5-1.3c0.6-0.8,0.7-1.8,0.3-2.8L59,99.1z"/>
		<path class="st1" d="M47.2,66.9c0-1.1-0.9-2-2-2H23.5c-1.1,0-2,0.9-2,2v13.8h25.6V66.9z"/>
		<path class="st1" d="M34.4,97.4l-3.2,4.6c-1.2,1.8-0.8,4.3,1,5.5h0c1.3,0.9,3.2,0.9,4.5,0c1.8-1.3,2.2-3.7,1-5.5L34.4,97.4z"/>
		<path class="st0" d="M47.2,84.7H21.6v35.4h25.6V84.7z M38.9,110.8c-1.3,0.9-2.9,1.4-4.5,1.4s-3.2-0.5-4.5-1.4
			c-3.6-2.5-4.4-7.4-1.9-11l6.5-9.2l6.4,9.2C43.3,103.4,42.4,108.3,38.9,110.8z"/>
		<path d="M34.4,90.6l-6.5,9.2c-2.5,3.6-1.6,8.5,1.9,11c1.3,0.9,2.9,1.4,4.5,1.4s3.2-0.5,4.5-1.4c3.6-2.5,4.4-7.4,1.9-11L34.4,90.6z
			 M36.6,107.6c-1.3,0.9-3.2,0.9-4.5,0h0c-1.8-1.3-2.2-3.7-1-5.5l3.2-4.6l3.2,4.6C38.8,103.8,38.4,106.3,36.6,107.6z"/>
		<path d="M68.3,110.5l-9.8-22.4h0c-0.9-2-3-3.4-5.4-3.4h-2V66.9c0-3.3-2.6-5.9-5.9-5.9H23.5c-3.3,0-5.9,2.6-5.9,5.9V124h33.5V88.6
			h2c0.8,0,1.5,0.5,1.8,1.2l0,0C55,90,55,90.3,55,90.6v22.6c0,3.8,3.1,6.9,6.9,6.9c2.3,0,4.5-1.1,5.7-3.1
			C68.9,115.1,69.2,112.7,68.3,110.5z M21.6,66.9c0-1.1,0.9-2,2-2h21.7c1.1,0,2,0.9,2,2v13.8H21.6V66.9z M47.2,120.1H21.6V84.7h25.6
			V120.1z M64.4,114.8c-0.6,0.8-1.5,1.3-2.5,1.3c-1.6,0-3-1.3-3-3V99.1l5.7,12.9C65,113,64.9,114,64.4,114.8z"/>
	</g>
</g>
<g id="Layer_2">
</g>
</svg>
