<?xml version="1.0" encoding="utf-8"?>
<!-- Generator: Adobe Illustrator 26.0.3, SVG Export Plug-In . SVG Version: 6.00 Build 0)  -->
<svg version="1.1" xmlns="http://www.w3.org/2000/svg" xmlns:xlink="http://www.w3.org/1999/xlink" x="0px" y="0px"
	 viewBox="0 0 126 126" style="enable-background:new 0 0 126 126;" xml:space="preserve">
<style type="text/css">
	.st0{fill:#FFFFFF;}
	.st1{fill:none;}
	.st2{fill:#1D1D1B;}
	.st3{fill:#0056FF;}
</style>
<g id="Layer_1">
	<g>
		<path class="st0" d="M92.5,3.9H37.4c-1.1,0-2,0.9-2,2v35.4c0,1.1,0.9,2,2,2h55.1c1.1,0,2-0.9,2-2V5.9C94.5,4.8,93.6,3.9,92.5,3.9z
			"/>
		<g>
			<rect x="61" y="98.4" width="3.9" height="27.6"/>
		</g>
		<g>
			<rect x="61" y="61" width="3.9" height="19.7"/>
		</g>
		<path d="M51.7,21.8v-8.1l-1.5-1.5l-1.5,1.5v8.1l1.5,1.5L51.7,21.8z M59.6,13.7v8.1l1.5,1.5l1.5-1.5v-8.1L61,12.2L59.6,13.7z
			 M59.2,13.3l1.5-1.5l-1.5-1.5H52l-1.5,1.5l1.5,1.5H59.2z M51.7,25.5L50.2,24l-1.5,1.5v8.1l1.5,1.5l1.5-1.5V25.5z M59.6,25.5v8.1
			l1.5,1.5l1.5-1.5v-8.1L61,24L59.6,25.5z M52,34l-1.5,1.5l1.5,1.5h7.1l1.5-1.5L59.2,34H52z M50.6,23.6l1.5,1.5h7.1l1.5-1.5
			l-1.5-1.5H52L50.6,23.6z M70.4,21.8v-8.1l-1.5-1.5l-1.5,1.5v8.1l1.5,1.5L70.4,21.8z M79.7,12.2l-1.5,1.5v8.1l1.5,1.5l1.5-1.5v-8.1
			L79.7,12.2z M77.9,13.3l1.5-1.5l-1.5-1.5h-7.1l-1.5,1.5l1.5,1.5H77.9z M70.4,25.5L68.9,24l-1.5,1.5v8.1l1.5,1.5l1.5-1.5V25.5z
			 M78.3,25.5v8.1l1.5,1.5l1.5-1.5v-8.1L79.7,24L78.3,25.5z M70.8,34l-1.5,1.5l1.5,1.5h7.1l1.5-1.5L77.9,34H70.8z"/>
		<path d="M112.2,21.7H98.4V5.9c0-3.3-2.6-5.9-5.9-5.9H37.4c-3.3,0-5.9,2.6-5.9,5.9v35.4c0,3.3,2.6,5.9,5.9,5.9h55.1
			c3.3,0,5.9-2.6,5.9-5.9V25.6h13.8c5.4,0,9.8,4.4,9.8,9.8v83.3L89.7,59.1h-4.5l36.3,66.9h0.5h3.9h0V35.4
			C126,27.8,119.8,21.7,112.2,21.7z M94.5,41.3c0,1.1-0.9,2-2,2H37.4c-1.1,0-2-0.9-2-2V5.9c0-1.1,0.9-2,2-2h55.1c1.1,0,2,0.9,2,2
			V41.3z"/>
		<polygon points="0,126 4.5,126 40.8,59.1 36.3,59.1 		"/>
	</g>
</g>
<g id="Layer_2">
</g>
</svg>
