<?xml version="1.0" encoding="utf-8"?>
<!-- Generator: Adobe Illustrator 26.0.3, SVG Export Plug-In . SVG Version: 6.00 Build 0)  -->
<svg version="1.1" xmlns="http://www.w3.org/2000/svg" xmlns:xlink="http://www.w3.org/1999/xlink" x="0px" y="0px"
	 viewBox="0 0 126 126" style="enable-background:new 0 0 126 126;" xml:space="preserve">
<style type="text/css">
	.st0{fill:#FFFFFF;}
	.st1{fill:none;}
	.st2{fill:#1D1D1B;}
	.st3{fill:#0056FF;}
</style>
<g id="Layer_1">
	<g>
		<g>
			<polygon points="110,122.5 104.3,112.7 98.7,122.5 95.3,120.6 100.9,110.7 89.6,110.7 89.6,106.8 100.9,106.8 95.3,97 98.7,95 
				104.3,104.8 110,95 113.4,97 107.8,106.8 119.1,106.8 119.1,110.7 107.8,110.7 113.4,120.6 			"/>
		</g>
		<path d="M106.5,34.3C103,15.8,87,2.4,67.9,2.4c-15.7,0-30,9.6-36.2,24c-1.4-0.2-2.8-0.4-4.2-0.4C12.4,26.1,0,38.4,0,53.6
			s12.4,27.6,27.6,27.6h9.8v-3.9h-9.8c-13,0-23.6-10.6-23.6-23.6S14.5,30,27.6,30s23.6,10.6,23.6,23.6h3.9
			c0-12.4-8.2-22.9-19.5-26.3C41.3,14.7,54,6.4,67.9,6.4c17.6,0,32.3,12.6,35,30l0.2,1.5l1.5,0.2c9.9,1.1,17.4,9.5,17.4,19.6
			c0,10.9-8.8,19.7-19.7,19.7v3.9c13,0,23.6-10.6,23.6-23.6C126,46.1,117.7,36.3,106.5,34.3z"/>
		<g>
			<rect x="-0.9" y="104.7" transform="matrix(0.5881 -0.8088 0.8088 0.5881 -78.7062 58.9028)" width="38.8" height="3.9"/>
		</g>
		<g>
			<rect x="26.9" y="111.1" transform="matrix(0.5881 -0.8088 0.8088 0.5881 -75.628 77.684)" width="23" height="3.9"/>
		</g>
		<g>
			<polygon class="st0" points="64,108.5 83.8,81.2 69.9,81.2 69.9,63.8 50.1,91 64,91 			"/>
			<path d="M91.5,77.3H73.8V51.7L42.3,95H60v25.6L91.5,77.3z M69.9,63.8v17.4h13.9L64,108.5V91H50.1L69.9,63.8z"/>
		</g>
	</g>
</g>
<g id="Layer_2">
</g>
</svg>
