<?xml version="1.0" encoding="utf-8"?>
<!-- Generator: Adobe Illustrator 26.0.3, SVG Export Plug-In . SVG Version: 6.00 Build 0)  -->
<svg version="1.1" xmlns="http://www.w3.org/2000/svg" xmlns:xlink="http://www.w3.org/1999/xlink" x="0px" y="0px"
	 viewBox="0 0 126 126" style="enable-background:new 0 0 126 126;" xml:space="preserve">
<style type="text/css">
	.st0{fill:#FFFFFF;}
	.st1{fill:none;}
	.st2{fill:#1D1D1B;}
	.st3{fill:#0056FF;}
</style>
<g id="Layer_1">
	<g>
		<g>
			<path class="st0" d="M55.1,23.1v0.5l-5.2,40c-0.4,3-2.9,5.1-5.9,5.1H26.8c-3,0-5.5-2.2-5.8-5.1l-4.3-40v-2H36h18.1L55.1,23.1z"/>
		</g>
		<g>
			<path class="st0" d="M122.1,26.6c1.1,0,2,0.9,2,2v15.8c0,1.1-0.9,2-2,2h-7.9V26.6H122.1z"/>
		</g>
		<g>
			<path d="M122.1,24.6h-5.9v-6.9c0-4.3-3.5-7.9-7.9-7.9H72.8v3.9h35.4c2.2,0,3.9,1.8,3.9,3.9V61c0,5.4-4.4,9.8-9.8,9.8H72.8v3.9
				h29.5c3.9,0,7.3-1.6,9.8-4.2v10.1h-9.8v3.9h9.8v15.8h-7.5l-3-9.8h-29v3.9h26l3,9.8h14.3V48.2h5.9c2.2,0,3.9-1.8,3.9-3.9V28.5
				C126,26.4,124.2,24.6,122.1,24.6z M122.1,44.3h-5.9V28.5h5.9V44.3z"/>
			<rect x="43.3" y="85.6" width="11.8" height="3.9"/>
			<rect x="15.7" y="85.6" width="11.8" height="3.9"/>
			<rect x="80.7" y="20.7" width="15.8" height="3.9"/>
			<path d="M66.9,86.6V36.8L55.2,19.7H38v-5.9h11.8V9.8H22.2v3.9H34v5.9H15.7L3.9,36.8v49.8c0,8.4,5.9,15.5,13.8,17.3L0,119.9v0.2
				h5.7l17.5-15.7h24.6l17.5,15.7h5.7v-0.2l-17.8-16C61,102.1,66.9,95.1,66.9,86.6z M53.1,23.6L53.1,23.6l-5.2,39.8
				c-0.3,2-1.9,3.4-3.9,3.4H26.8c-2,0-3.6-1.5-3.9-3.4l-4.2-39.8H53.1z M7.9,86.6V38l7.3-10.6L19,63.9c0.5,3.9,3.8,6.9,7.8,6.9H44
				c3.9,0,7.3-2.9,7.8-6.9l4.6-35.4L63,38v48.6c0,7.6-6.2,13.8-13.8,13.8H21.7C14.1,100.4,7.9,94.2,7.9,86.6z"/>
		</g>
	</g>
</g>
<g id="Layer_2">
</g>
</svg>
