<?xml version="1.0" encoding="utf-8"?>
<!-- Generator: Adobe Illustrator 26.0.3, SVG Export Plug-In . SVG Version: 6.00 Build 0)  -->
<svg version="1.1" xmlns="http://www.w3.org/2000/svg" xmlns:xlink="http://www.w3.org/1999/xlink" x="0px" y="0px"
	 viewBox="0 0 126 126" style="enable-background:new 0 0 126 126;" xml:space="preserve">
<style type="text/css">
	.st0{fill:#FFFFFF;}
	.st1{fill:none;}
	.st2{fill:#1D1D1B;}
	.st3{fill:#0056FF;}
</style>
<g id="Layer_1">
	<g>
		<g>
			<path class="st0" d="M77.2,83.5l-1.7-3.7H11l-1.7,3.7c-1,2.1-1.5,4.3-1.5,6.6V124h9.8l2.8-9.8H66l2.8,9.8h9.8V90.1
				C78.7,87.8,78.2,85.5,77.2,83.5z M57.3,99.4c-0.4,1.8-2,3-3.8,3H33c-1.8,0-3.4-1.2-3.8-3l-2.2-8.8h32.6L57.3,99.4z"/>
			<path d="M29.1,99.4c0.4,1.8,2,3,3.8,3h20.6c1.8,0,3.4-1.2,3.8-3l2.2-8.8H26.9L29.1,99.4z M53.5,98.4
				C53.5,98.4,53.5,98.4,53.5,98.4L53.5,98.4z M54.5,94.5l-1,3.9l-20.5,0l-1-3.9H54.5z"/>
		</g>
		<g>
			<rect x="105.2" y="92.5" class="st2" width="3.9" height="33.5"/>
		</g>
		<g>
			<rect x="88.5" y="115.2" class="st2" width="8.9" height="3.9"/>
		</g>
		<g>
			<circle class="st0" cx="107.2" cy="72.8" r="4.9"/>
		</g>
		<g>
			<path class="st3" d="M80.6,126H67.3l-2.8-9.8H21.9l-2.8,9.8H5.8V90.1c0-2.6,0.6-5.1,1.6-7.5l10.3-22.1c1-2.1,3.1-3.4,5.4-3.4
				h40.3c2.3,0,4.4,1.3,5.4,3.4L79,82.6c1.1,2.3,1.6,4.9,1.6,7.5V126z M70.3,122.1h6.4v-32c0-2-0.4-4-1.3-5.8L65.1,62.2
				c-0.3-0.7-1-1.1-1.8-1.1H23.1c-0.8,0-1.5,0.4-1.8,1.1L11,84.3c-0.8,1.8-1.3,3.8-1.3,5.8v32h6.4l2.8-9.8h48.5L70.3,122.1z"/>
		</g>
		<g>
			<path d="M72.8,94.5h-9.8v-3.9h9.8V94.5z M23.5,94.5h-9.8v-3.9h9.8V94.5z"/>
		</g>
		<path d="M86.5,74.8h-9.8v2.9l-8-17.2c-1-2.1-3.1-3.4-5.4-3.4H23.1c-2.3,0-4.4,1.3-5.4,3.4l-8,17.2v-2.9h-9.8v3.9h9.4l-1.8,3.9
			c-1.1,2.3-1.6,4.9-1.6,7.5V126h13.3l2.8-9.8h42.6l2.8,9.8h13.3V90.1c0-2.6-0.6-5.1-1.6-7.5l-1.8-3.9h9.4V74.8z M21.3,62.2
			c0.3-0.7,1-1.1,1.8-1.1h40.3c0.8,0,1.5,0.4,1.8,1.1l7.2,15.6H14.1L21.3,62.2z M76.7,122.1h-6.4l-2.8-9.8H19l-2.8,9.8H9.8v-32
			c0-2,0.4-4,1.3-5.8l1.2-2.6h62l1.2,2.6c0.8,1.8,1.3,3.8,1.3,5.8V122.1z"/>
		<g>
			<polygon class="st0" points="83.1,24 83.1,17.6 92.1,24 102.3,24 102.3,10.2 43.2,10.2 43.2,3.8 25,16.7 43.2,29.7 43.2,26 
				43.2,24 45.2,24 65.5,24 			"/>
		</g>
		<g>
			<polygon class="st1" points="83.1,43.4 101.3,30.5 83.1,17.6 83.1,24 47.5,24 45.2,24 43.2,24 43.2,26 43.2,29.7 35.2,24 24,24 
				24,37.8 81.1,37.8 83.1,37.8 83.1,39.7 			"/>
		</g>
		<g>
			<polygon points="81.1,47.2 81.1,39.7 24,39.7 24,35.8 85,35.8 85,39.6 97.9,30.5 85,21.4 85,26 45.2,26 45.2,33.5 21.6,16.7 
				45.2,0 45.2,8.2 102.3,8.2 102.3,12.2 41.3,12.2 41.3,7.6 28.4,16.7 41.3,25.9 41.3,22 81.1,22 81.1,13.8 104.7,30.5 			"/>
		</g>
		<g>
			<rect x="117.1" y="100.4" class="st2" width="8.9" height="3.9"/>
		</g>
		<path class="st2" d="M113.8,74.8h8.2v-3.9h-8.2c-0.9-2.8-3.5-4.9-6.6-4.9c-3.1,0-5.7,2.1-6.6,4.9h-8.2v3.9h8.2
			c0.7,2.2,2.4,3.9,4.6,4.6v5.5c-3.4,0.8-5.9,3.8-5.9,7.3v18h3.9v-18c0-2,1.8-3.7,3.9-3.7s3.9,1.6,3.9,3.7v18h3.9v-18
			c0-3.5-2.5-6.5-5.9-7.3v-5.5C111.4,78.7,113.1,77,113.8,74.8z M104.3,72.8c0-1.6,1.3-3,3-3s3,1.3,3,3s-1.3,3-3,3
			S104.3,74.5,104.3,72.8z"/>
	</g>
</g>
<g id="Layer_2">
</g>
</svg>
