<?xml version="1.0" encoding="utf-8"?>
<!-- Generator: Adobe Illustrator 26.0.3, SVG Export Plug-In . SVG Version: 6.00 Build 0)  -->
<svg version="1.1" xmlns="http://www.w3.org/2000/svg" xmlns:xlink="http://www.w3.org/1999/xlink" x="0px" y="0px"
	 viewBox="0 0 126 126" style="enable-background:new 0 0 126 126;" xml:space="preserve">
<style type="text/css">
	.st0{fill:#FFFFFF;}
	.st1{fill:none;}
	.st2{fill:#1D1D1B;}
	.st3{fill:#0056FF;}
</style>
<g id="Layer_1">
	<g>
		<g>
			<rect x="94.5" y="2" class="st0" width="7.9" height="74.8"/>
		</g>
		<g>
			<rect x="23.6" y="2" class="st0" width="7.9" height="74.8"/>
		</g>
		<path d="M98.4,104.3v-9.8h-3.9v9.8h-8.9l-3.9,5.9H33.5V96.5h-7.9v-9.8h-3.9v9.8H7.9v9.8H0v6.3L6.2,126h91.3l14.4-21.7H98.4z
			 M95.4,122.1H8.7l-4.8-10.3v-1.5h7.9v-9.8h17.7v13.8h54.2l3.9-5.9h16.9L95.4,122.1z"/>
		<g>
			<rect x="39.4" y="82.7" width="27.6" height="3.9"/>
		</g>
		<path d="M104.3,5.9L104.3,5.9l0-5.9H92.5v5.9c0,16.3-13.2,29.5-29.5,29.5S33.5,22.2,33.5,5.9V0H21.7v5.9c0,13.5-9.2,25-21.7,28.4
			v4.1c9.4-2.3,17.2-8.5,21.7-16.8v57.2h11.8V21.6C39.1,32.2,50.2,39.4,63,39.4s23.9-7.2,29.5-17.8v57.1h11.8V21.6
			c4.4,8.3,12.3,14.5,21.7,16.8v-4.1C113.5,30.9,104.3,19.5,104.3,5.9z M29.5,74.8h-3.9V5.9c0,0,0,0,0,0h0v-2h3.9V74.8z M100.4,74.8
			h-3.9V3.9h3.9V74.8z"/>
		<g>
			<rect x="47.3" y="94.5" width="35.4" height="3.9"/>
		</g>
		<g>
			<rect x="0" y="51.2" class="st0" width="126" height="7.9"/>
		</g>
		<g>
			<rect x="0" y="49.2" width="126" height="3.9"/>
		</g>
		<g>
			<rect x="0" y="57.1" width="126" height="3.9"/>
		</g>
	</g>
</g>
<g id="Layer_2">
</g>
</svg>
