<?xml version="1.0" encoding="utf-8"?>
<!-- Generator: Adobe Illustrator 26.0.3, SVG Export Plug-In . SVG Version: 6.00 Build 0)  -->
<svg version="1.1" id="Layer_1" xmlns="http://www.w3.org/2000/svg" xmlns:xlink="http://www.w3.org/1999/xlink" x="0px" y="0px"
	 viewBox="0 0 126 126" style="enable-background:new 0 0 126 126;" xml:space="preserve">
<style type="text/css">
	.st0{fill:#FFFFFF;}
</style>
<g id="Layer_2_00000000943175721165887930000018402460964688849085_">
</g>
<g id="Layer_2_00000091731685015943823780000003884086580403212431_">
</g>
<g id="Rectangle_536_00000133507967689017285230000000085659132986864560_">
	<g id="XMLID_00000103978533395915766920000012004234227544411305_">
		<g>
			<rect x="3.9" y="32.6" class="st0" width="89.8" height="89.8"/>
			<path d="M97.7,28.6v97.8H-0.1V28.6H97.7z M93.7,122.3V32.6H3.9v89.8H93.7z"/>
		</g>
		<g>
		</g>
	</g>
</g>
<g>
	<polygon points="126.1,0.2 30.3,0.2 30.3,4.2 122.1,4.2 122.1,94 111.9,94 111.9,14.4 16.1,14.4 16.1,18.4 107.9,18.4 107.9,108.2 
		96.7,108.2 96.7,112.2 111.9,112.2 111.9,98 126.1,98 	"/>
	<polygon points="46.8,57.9 46.8,75.5 29.3,75.5 29.3,79.5 46.8,79.5 46.8,97 50.8,97 50.8,79.5 68.4,79.5 68.4,75.5 50.8,75.5 
		50.8,57.9 	"/>
</g>
</svg>
