<svg id="Layer_1" data-name="Layer 1" xmlns="http://www.w3.org/2000/svg" viewBox="0 0 38.55 39.4"><defs><style>.cls-1{fill:none;}</style></defs><path class="cls-1" d="M32.74,6.44a11.76,11.76,0,1,0,.06.06Z" transform="translate(-0.62 0.03)"/><path d="M35.53,5.06c-.21-.25-.43-.5-.66-.74a10.21,10.21,0,0,0-.77-.69A14.78,14.78,0,0,0,13.31,24.56h0L1.06,36.81a1.49,1.49,0,0,0,0,2.12h0a1.49,1.49,0,0,0,2.12,0L15.51,26.6h0l.18.12q.42.32.87.6l.42.24.69.39.43.2.73.33.4.15.81.28.36.1c.29.08.58.16.88.22l.31.07c.32.06.63.11.95.15h.27c.34,0,.67.06,1,.07h1.61l.8-.08.54-.08a3.12,3.12,0,0,0,.74-.14l.59-.14.69-.19.63-.21.62-.24.67-.3c.18-.09.37-.17.55-.27l.71-.4.47-.29c.26-.17.52-.35.77-.54s.25-.17.37-.27c.36-.29.72-.6,1.07-.93l.22-.2c.13-.13.25-.28.37-.42A14.77,14.77,0,0,0,35.53,5.06ZM32.74,23.13a11.8,11.8,0,1,1,0-16.69A11.81,11.81,0,0,1,32.74,23.13Z" transform="translate(-0.62 0.03)"/><path class="cls-1" d="M28.79,28.9l-.69.19" transform="translate(-0.62 0.03)"/><path class="cls-1" d="M30,28.45l-.62.24" transform="translate(-0.62 0.03)"/><path class="cls-1" d="M32.44,27.24l-.47.29" transform="translate(-0.62 0.03)"/><path class="cls-1" d="M33.58,26.38c-.12.1-.25.18-.37.27" transform="translate(-0.62 0.03)"/><path class="cls-1" d="M27.51,29.24c-.24.06-.49.1-.74.14" transform="translate(-0.62 0.03)"/><path class="cls-1" d="M18.83,28.48l-.73-.33" transform="translate(-0.62 0.03)"/><path class="cls-1" d="M31.26,27.88c-.18.1-.37.18-.55.27" transform="translate(-0.62 0.03)"/><path class="cls-1" d="M17.67,28,17,27.56" transform="translate(-0.62 0.03)"/><path class="cls-1" d="M22.54,29.45a5.21,5.21,0,0,1-.95-.15" transform="translate(-0.62 0.03)"/><path class="cls-1" d="M20,28.91l-.81-.28" transform="translate(-0.62 0.03)"/><path class="cls-1" d="M21.28,29.24c-.3-.06-.59-.14-.88-.22" transform="translate(-0.62 0.03)"/><path class="cls-1" d="M23.82,29.55a4.76,4.76,0,0,1-1-.07" transform="translate(-0.62 0.03)"/><path class="cls-1" d="M16.56,27.32q-.45-.29-.87-.6" transform="translate(-0.62 0.03)"/><path class="cls-1" d="M26.19,29.45l-.8.08" transform="translate(-0.62 0.03)"/></svg>